# xmcd
#
# Track frame offsets:
#	150
#	19420
#	42814
#	58260
#	73002
#	91206
#	108625
#	124409
#	138570
#	153654
#	171447
#	189845
#
# Disc length: 2675 seconds
#
# Revision: 1
# Processed by: cddbd v1.5.2PL0 Copyright (c) Steve Scherf et al.
# Submitted via: audiograbber 1.83.01
#
DISCID=b10a710c
DTITLE=Hard Ryde - Composed
DYEAR=1900
DGENRE=Bluegrass
TTITLE0=Echo
TTITLE1=Heaven on Earth
TTITLE2=Renegade
TTITLE3=Long Hard Road
TTITLE4=Marina
TTITLE5=Shut up and Drive
TTITLE6=This Mountain
TTITLE7=Momma's Words
TTITLE8=Money Can't Buy
TTITLE9=Travel Safe
TTITLE10=Warm Day in June
TTITLE11=Rejoice
EXTD=
EXTT0=
EXTT1=
EXTT2=
EXTT3=
EXTT4=
EXTT5=
EXTT6=
EXTT7=
EXTT8=
EXTT9=
EXTT10=
EXTT11=
PLAYORDER=
